<svg id="visual" viewBox="0 0 900 600" width="900" height="600" xmlns="http://www.w3.org/2000/svg" xmlns:xlink="http://www.w3.org/1999/xlink" version="1.1"><rect x="0" y="0" width="900" height="600" fill="#f3f5f8"></rect><defs><linearGradient id="grad1_0" x1="33.3%" y1="0%" x2="100%" y2="100%"><stop offset="20%" stop-color="#f3f5f8" stop-opacity="1"></stop><stop offset="80%" stop-color="#f3f5f8" stop-opacity="1"></stop></linearGradient></defs><defs><linearGradient id="grad2_0" x1="0%" y1="0%" x2="66.7%" y2="100%"><stop offset="20%" stop-color="#f3f5f8" stop-opacity="1"></stop><stop offset="80%" stop-color="#f3f5f8" stop-opacity="1"></stop></linearGradient></defs><g transform="translate(900, 0)"><path d="M0 270.4C-46.3 262 -92.5 253.6 -134 232.1C-175.5 210.6 -212.2 176.1 -234.2 135.2C-256.1 94.3 -263.3 47.2 -270.4 0L0 0Z" fill="#7f00ff"></path></g><g transform="translate(0, 600)"><path d="M0 -270.4C49 -264.3 98 -258.3 135.2 -234.2C172.4 -210.1 197.7 -168 218.2 -126C238.8 -84 254.6 -42 270.4 0L0 0Z" fill="#7f00ff"></path></g></svg>